<svg width="48" height="48" viewBox="0 0 48 48" fill="none" xmlns="http://www.w3.org/2000/svg" class="icon-con">
	<rect width="48" height="48" rx="4" fill="#54698D" class="icon-back-fill"></rect>
	<path
		d="M24 31.8764C28.3502 31.8764 31.8767 28.3499 31.8767 23.9997C31.8767 19.6496 28.3502 16.123 24 16.123C19.6498 16.123 16.1233 19.6496 16.1233 23.9997C16.1233 28.3499 19.6498 31.8764 24 31.8764Z"
		fill="white">
	</path>
	<path fill-rule="evenodd" clip-rule="evenodd"
		d="M7 24C7 14.65 14.65 7 24 7C33.35 7 41 14.65 41 24C41 33.35 33.35 41 24 41C14.65 41 7 33.35 7 24ZM11.5333 24C11.5333 30.8567 17.1433 36.4667 24 36.4667C30.8567 36.4667 36.4667 30.8567 36.4667 24C36.4667 17.1433 30.8567 11.5333 24 11.5333C17.1433 11.5333 11.5333 17.1433 11.5333 24Z"
		fill="white">
	</path>
</svg>